<svg width="10" height="10" viewBox="0 0 10 10" fill="none" xmlns="http://www.w3.org/2000/svg">
<path d="M5.41659 9.47921H2.08325C1.07492 9.47921 0.520752 8.92504 0.520752 7.91671V4.58337C0.520752 3.57504 1.07492 3.02087 2.08325 3.02087H4.16659C4.33742 3.02087 4.47909 3.16254 4.47909 3.33337V7.91671C4.47909 8.57504 4.75825 8.85421 5.41659 8.85421C5.58742 8.85421 5.72909 8.99587 5.72909 9.16671C5.72909 9.33754 5.58742 9.47921 5.41659 9.47921ZM2.08325 3.64587C1.42492 3.64587 1.14575 3.92504 1.14575 4.58337V7.91671C1.14575 8.57504 1.42492 8.85421 2.08325 8.85421H4.08325C3.93325 8.60837 3.85409 8.29587 3.85409 7.91671V3.64587H2.08325Z" fill="#727272"/>
<path d="M4.16659 3.64579H2.08325C1.91242 3.64579 1.77075 3.50413 1.77075 3.33329V2.49996C1.77075 1.86663 2.28325 1.35413 2.91659 1.35413H4.21241C4.30825 1.35413 4.39992 1.39995 4.45826 1.47495C4.51659 1.55412 4.53741 1.65413 4.51241 1.74579C4.48741 1.83746 4.47909 1.94163 4.47909 2.08329V3.33329C4.47909 3.50413 4.33742 3.64579 4.16659 3.64579ZM2.39575 3.02079H3.85409V2.08329C3.85409 2.04579 3.85409 2.01246 3.85409 1.97913H2.91659C2.62909 1.97913 2.39575 2.21246 2.39575 2.49996V3.02079Z" fill="#727272"/>
<path d="M5.83325 5.72921C5.66242 5.72921 5.52075 5.58754 5.52075 5.41671V3.33337C5.52075 3.16254 5.66242 3.02087 5.83325 3.02087C6.00409 3.02087 6.14575 3.16254 6.14575 3.33337V5.41671C6.14575 5.58754 6.00409 5.72921 5.83325 5.72921Z" fill="#727272"/>
<path d="M7.5 5.72921C7.32917 5.72921 7.1875 5.58754 7.1875 5.41671V3.33337C7.1875 3.16254 7.32917 3.02087 7.5 3.02087C7.67083 3.02087 7.8125 3.16254 7.8125 3.33337V5.41671C7.8125 5.58754 7.67083 5.72921 7.5 5.72921Z" fill="#727272"/>
<path d="M7.49992 9.47921H5.83325C5.66242 9.47921 5.52075 9.33754 5.52075 9.16671V7.50004C5.52075 7.10004 5.84992 6.77087 6.24992 6.77087H7.08325C7.48325 6.77087 7.81242 7.10004 7.81242 7.50004V9.16671C7.81242 9.33754 7.67075 9.47921 7.49992 9.47921ZM6.14575 8.85421H7.18742V7.50004C7.18742 7.44171 7.14159 7.39587 7.08325 7.39587H6.24992C6.19159 7.39587 6.14575 7.44171 6.14575 7.50004V8.85421Z" fill="#727272"/>
<path d="M2.5 7.39579C2.32917 7.39579 2.1875 7.25413 2.1875 7.08329V5.41663C2.1875 5.24579 2.32917 5.10413 2.5 5.10413C2.67083 5.10413 2.8125 5.24579 2.8125 5.41663V7.08329C2.8125 7.25413 2.67083 7.39579 2.5 7.39579Z" fill="#727272"/>
<path d="M7.91675 9.47921H5.41675C4.40841 9.47921 3.85425 8.92504 3.85425 7.91671V2.08337C3.85425 1.07504 4.40841 0.520874 5.41675 0.520874H7.91675C8.92508 0.520874 9.47925 1.07504 9.47925 2.08337V7.91671C9.47925 8.92504 8.92508 9.47921 7.91675 9.47921ZM5.41675 1.14587C4.75841 1.14587 4.47925 1.42504 4.47925 2.08337V7.91671C4.47925 8.57504 4.75841 8.85421 5.41675 8.85421H7.91675C8.57508 8.85421 8.85425 8.57504 8.85425 7.91671V2.08337C8.85425 1.42504 8.57508 1.14587 7.91675 1.14587H5.41675Z" fill="#727272"/>
</svg>
