<svg width="10" height="10" viewBox="0 0 10 10" fill="none" xmlns="http://www.w3.org/2000/svg">
<path d="M3.33325 2.39587C3.16242 2.39587 3.02075 2.25421 3.02075 2.08337V0.833374C3.02075 0.662541 3.16242 0.520874 3.33325 0.520874C3.50409 0.520874 3.64575 0.662541 3.64575 0.833374V2.08337C3.64575 2.25421 3.50409 2.39587 3.33325 2.39587Z" fill="#727272"/>
<path d="M6.66675 2.39587C6.49591 2.39587 6.35425 2.25421 6.35425 2.08337V0.833374C6.35425 0.662541 6.49591 0.520874 6.66675 0.520874C6.83758 0.520874 6.97925 0.662541 6.97925 0.833374V2.08337C6.97925 2.25421 6.83758 2.39587 6.66675 2.39587Z" fill="#727272"/>
<path d="M6.25 9.47921H3.75C1.40833 9.47921 0.9375 8.37504 0.9375 6.59171V4.02087C0.9375 2.04587 1.60417 1.24171 3.31667 1.14587H6.66667C6.67083 1.14587 6.67917 1.14587 6.68333 1.14587C8.39583 1.24171 9.0625 2.04587 9.0625 4.02087V6.59171C9.0625 8.37504 8.59167 9.47921 6.25 9.47921ZM3.33333 1.77087C2.16667 1.83754 1.5625 2.20421 1.5625 4.02087V6.59171C1.5625 8.18754 1.86667 8.85421 3.75 8.85421H6.25C8.13333 8.85421 8.4375 8.18754 8.4375 6.59171V4.02087C8.4375 2.20837 7.8375 1.83754 6.65833 1.77087H3.33333Z" fill="#727272"/>
<path d="M8.64591 7.64587H1.35425C1.18341 7.64587 1.04175 7.50421 1.04175 7.33337C1.04175 7.16254 1.18341 7.02087 1.35425 7.02087H8.64591C8.81675 7.02087 8.95841 7.16254 8.95841 7.33337C8.95841 7.50421 8.81675 7.64587 8.64591 7.64587Z" fill="#727272"/>
<path d="M4.99992 3.4375C4.48742 3.4375 4.05409 3.71667 4.05409 4.25833C4.05409 4.51667 4.17492 4.7125 4.35825 4.8375C4.10409 4.9875 3.95825 5.22917 3.95825 5.5125C3.95825 6.02917 4.35409 6.35 4.99992 6.35C5.64159 6.35 6.04159 6.02917 6.04159 5.5125C6.04159 5.22917 5.89575 4.98333 5.63742 4.8375C5.82492 4.70833 5.94159 4.51667 5.94159 4.25833C5.94159 3.71667 5.51242 3.4375 4.99992 3.4375ZM4.99992 4.62083C4.78325 4.62083 4.62492 4.49167 4.62492 4.2875C4.62492 4.07917 4.78325 3.95833 4.99992 3.95833C5.21659 3.95833 5.37492 4.07917 5.37492 4.2875C5.37492 4.49167 5.21659 4.62083 4.99992 4.62083ZM4.99992 5.83333C4.72492 5.83333 4.52492 5.69583 4.52492 5.44583C4.52492 5.19583 4.72492 5.0625 4.99992 5.0625C5.27492 5.0625 5.47492 5.2 5.47492 5.44583C5.47492 5.69583 5.27492 5.83333 4.99992 5.83333Z" fill="#727272"/>
</svg>
