<svg width="10" height="10" viewBox="0 0 10 10" fill="none" xmlns="http://www.w3.org/2000/svg">
<path d="M7.27087 9.47921C6.80004 9.47921 6.30421 9.36671 5.79171 9.15004C5.29171 8.93754 4.78754 8.64587 4.29587 8.29171C3.80837 7.93337 3.33754 7.53337 2.89171 7.09587C2.45004 6.65004 2.05004 6.17921 1.69587 5.69587C1.33754 5.19587 1.05004 4.69587 0.845874 4.21254C0.629207 3.69587 0.520874 3.19587 0.520874 2.72504C0.520874 2.40004 0.579207 2.09171 0.691707 1.80421C0.808374 1.50837 0.995874 1.23337 1.25004 0.995874C1.57087 0.679207 1.93754 0.520874 2.32921 0.520874C2.49171 0.520874 2.65837 0.558374 2.80004 0.625041C2.96254 0.700041 3.10004 0.812541 3.20004 0.962541L4.16671 2.32504C4.25421 2.44587 4.32087 2.56254 4.36671 2.67921C4.42087 2.80421 4.45004 2.92921 4.45004 3.05004C4.45004 3.20837 4.40421 3.36254 4.31671 3.50837C4.25421 3.62087 4.15837 3.74171 4.03754 3.86254L3.75421 4.15837C3.75837 4.17087 3.76254 4.17921 3.76671 4.18754C3.81671 4.27504 3.91671 4.42504 4.10837 4.65004C4.31254 4.88337 4.50421 5.09587 4.69587 5.29171C4.94171 5.53337 5.14587 5.72504 5.33754 5.88337C5.57504 6.08337 5.72921 6.18337 5.82087 6.22921L5.81254 6.25004L6.11671 5.95004C6.24587 5.82087 6.37087 5.72504 6.49171 5.66254C6.72087 5.52087 7.01254 5.49587 7.30421 5.61671C7.41254 5.66254 7.52921 5.72504 7.65421 5.81254L9.03754 6.79587C9.19171 6.90004 9.30421 7.03337 9.37088 7.19171C9.43338 7.35004 9.46254 7.49587 9.46254 7.64171C9.46254 7.84171 9.41671 8.04171 9.32921 8.22921C9.24171 8.41671 9.13338 8.57921 8.99588 8.72921C8.75838 8.99171 8.50004 9.17921 8.20004 9.30004C7.91254 9.41671 7.60004 9.47921 7.27087 9.47921ZM2.32921 1.14587C2.10004 1.14587 1.88754 1.24587 1.68337 1.44587C1.49171 1.62504 1.35837 1.82087 1.27504 2.03337C1.18754 2.25004 1.14587 2.47921 1.14587 2.72504C1.14587 3.11254 1.23754 3.53337 1.42087 3.96671C1.60837 4.40837 1.87087 4.86671 2.20421 5.32504C2.53754 5.78337 2.91671 6.22921 3.33337 6.65004C3.75004 7.06254 4.20004 7.44587 4.66254 7.78337C5.11254 8.11254 5.57504 8.37921 6.03337 8.57087C6.74587 8.87504 7.41254 8.94587 7.96254 8.71671C8.17504 8.62921 8.36254 8.49587 8.53337 8.30421C8.62921 8.20004 8.70421 8.08754 8.76671 7.95421C8.81671 7.85004 8.84171 7.74171 8.84171 7.63337C8.84171 7.56671 8.82921 7.50004 8.79588 7.42504C8.78337 7.40004 8.75838 7.35421 8.67921 7.30004L7.29588 6.31671C7.21254 6.25837 7.13754 6.21671 7.06671 6.18754C6.97504 6.15004 6.93754 6.11254 6.79587 6.20004C6.71254 6.24171 6.63754 6.30421 6.55421 6.38754L6.23754 6.70004C6.07504 6.85837 5.82504 6.89587 5.63337 6.82504L5.52087 6.77504C5.35004 6.68337 5.15004 6.54171 4.92921 6.35421C4.72921 6.18337 4.51254 5.98337 4.25004 5.72504C4.04587 5.51671 3.84171 5.29587 3.62921 5.05004C3.43337 4.82087 3.29171 4.62504 3.20421 4.46254L3.15421 4.33754C3.12921 4.24171 3.12087 4.18754 3.12087 4.12921C3.12087 3.97921 3.17504 3.84587 3.27921 3.74171L3.59171 3.41671C3.67504 3.33337 3.73754 3.25421 3.77921 3.18337C3.81254 3.12921 3.82504 3.08337 3.82504 3.04171C3.82504 3.00837 3.81254 2.95837 3.79171 2.90837C3.76254 2.84171 3.71671 2.76671 3.65837 2.68754L2.69171 1.32087C2.65004 1.26254 2.60004 1.22087 2.53754 1.19171C2.47087 1.16254 2.40004 1.14587 2.32921 1.14587ZM5.81254 6.25421L5.74587 6.53754L5.85838 6.24587C5.83754 6.24171 5.82087 6.24587 5.81254 6.25421Z" fill="#727272"/>
</svg>
