<svg width="14" height="15" viewBox="0 0 14 15" fill="none" xmlns="http://www.w3.org/2000/svg">
<path d="M8.69174 13.7708H5.30842C4.78925 13.7708 4.12425 13.4967 3.76258 13.1292L1.37092 10.7375C1.00342 10.37 0.729248 9.70499 0.729248 9.19165V5.80833C0.729248 5.28916 1.00342 4.62416 1.37092 4.2625L3.76258 1.87083C4.13008 1.50333 4.79509 1.22916 5.30842 1.22916H8.69174C9.21091 1.22916 9.87592 1.50333 10.2376 1.87083L12.6292 4.2625C12.9967 4.63 13.2709 5.29499 13.2709 5.80833V9.19165C13.2709 9.71082 12.9967 10.3758 12.6292 10.7375L10.2376 13.1292C9.87008 13.4967 9.21091 13.7708 8.69174 13.7708ZM5.30842 2.10416C5.02259 2.10416 4.57925 2.28499 4.38091 2.48916L1.98925 4.88083C1.79092 5.085 1.60425 5.52249 1.60425 5.80833V9.19165C1.60425 9.47749 1.78508 9.92082 1.98925 10.1192L4.38091 12.5108C4.58508 12.7092 5.02259 12.8958 5.30842 12.8958H8.69174C8.97758 12.8958 9.42092 12.715 9.61925 12.5108L12.0109 10.1192C12.2092 9.91498 12.3959 9.47749 12.3959 9.19165V5.80833C12.3959 5.52249 12.2151 5.07916 12.0109 4.88083L9.61925 2.48916C9.41508 2.29083 8.97758 2.10416 8.69174 2.10416H5.30842Z" fill="#346EA2"/>
<path d="M4.95826 9.97915C4.84742 9.97915 4.73659 9.93832 4.64909 9.85082C4.47993 9.68165 4.47993 9.40165 4.64909 9.23249L8.73243 5.14915C8.90159 4.97999 9.18159 4.97999 9.35076 5.14915C9.51992 5.31832 9.51992 5.59832 9.35076 5.76748L5.26742 9.85082C5.17992 9.93832 5.06909 9.97915 4.95826 9.97915Z" fill="#346EA2"/>
<path d="M9.04159 9.97915C8.93076 9.97915 8.81993 9.93832 8.73243 9.85082L4.64909 5.76748C4.47993 5.59832 4.47993 5.31832 4.64909 5.14915C4.81826 4.97999 5.09826 4.97999 5.26742 5.14915L9.35076 9.23249C9.51992 9.40165 9.51992 9.68165 9.35076 9.85082C9.26326 9.93832 9.15242 9.97915 9.04159 9.97915Z" fill="#346EA2"/>
</svg>
