<svg width="14" height="14" viewBox="0 0 14 14" fill="none" xmlns="http://www.w3.org/2000/svg">
<path d="M12.2501 3.92587C12.2385 3.92587 12.221 3.92587 12.2035 3.92587C9.11763 3.6167 6.03763 3.50004 2.9868 3.8092L1.7968 3.92587C1.5518 3.9492 1.33597 3.7742 1.31263 3.5292C1.2893 3.2842 1.4643 3.0742 1.70347 3.05087L2.89347 2.9342C5.9968 2.6192 9.14097 2.7417 12.291 3.05087C12.5301 3.0742 12.7051 3.29004 12.6818 3.5292C12.6643 3.7567 12.4718 3.92587 12.2501 3.92587Z" fill="#727272"/>
<path d="M4.95844 3.33672C4.93511 3.33672 4.91177 3.33672 4.88261 3.33088C4.64927 3.29005 4.48594 3.06255 4.52677 2.82922L4.65511 2.06505C4.74844 1.50505 4.87677 0.729218 6.23594 0.729218H7.76427C9.12927 0.729218 9.25761 1.53422 9.34511 2.07088L9.47344 2.82922C9.51427 3.06838 9.35094 3.29588 9.11761 3.33088C8.87844 3.37172 8.65094 3.20838 8.61594 2.97505L8.48761 2.21672C8.40594 1.70922 8.38844 1.61005 7.77011 1.61005H6.24177C5.62344 1.61005 5.61177 1.69172 5.52427 2.21088L5.39011 2.96922C5.35511 3.18505 5.16844 3.33672 4.95844 3.33672Z" fill="#727272"/>
<path d="M8.8724 13.2709H5.1274C3.09157 13.2709 3.0099 12.145 2.94573 11.235L2.56657 5.36088C2.54907 5.12171 2.73573 4.91171 2.9749 4.89421C3.2199 4.88254 3.42407 5.06338 3.44157 5.30254L3.82073 11.1767C3.8849 12.0634 3.90823 12.3959 5.1274 12.3959H8.8724C10.0974 12.3959 10.1207 12.0634 10.1791 11.1767L10.5582 5.30254C10.5757 5.06338 10.7857 4.88254 11.0249 4.89421C11.2641 4.91171 11.4507 5.11588 11.4332 5.36088L11.0541 11.235C10.9899 12.145 10.9082 13.2709 8.8724 13.2709Z" fill="#727272"/>
<path d="M7.96838 10.0625H6.02588C5.78671 10.0625 5.58838 9.86417 5.58838 9.625C5.58838 9.38583 5.78671 9.1875 6.02588 9.1875H7.96838C8.20755 9.1875 8.40588 9.38583 8.40588 9.625C8.40588 9.86417 8.20755 10.0625 7.96838 10.0625Z" fill="#727272"/>
<path d="M8.45817 7.72922H5.5415C5.30234 7.72922 5.104 7.53088 5.104 7.29172C5.104 7.05255 5.30234 6.85422 5.5415 6.85422H8.45817C8.69734 6.85422 8.89567 7.05255 8.89567 7.29172C8.89567 7.53088 8.69734 7.72922 8.45817 7.72922Z" fill="#727272"/>
</svg>
