<svg width="10" height="10" viewBox="0 0 10 10" fill="none" xmlns="http://www.w3.org/2000/svg">
<path d="M7.55006 9.0625C7.30006 9.0625 7.04589 9.00417 6.80423 8.88333L5.45423 8.20833C5.17089 8.06667 4.82923 8.06667 4.54173 8.20833L3.19173 8.88333C2.54173 9.20833 1.79173 9.08333 1.28339 8.5625C0.775059 8.04167 0.662559 7.29167 1.00423 6.64583L3.54589 1.81667C3.82923 1.275 4.38756 0.9375 5.00006 0.9375C5.61256 0.9375 6.17089 1.275 6.45423 1.81667L8.99589 6.64583C9.33339 7.29167 9.22506 8.04167 8.71672 8.5625C8.39589 8.89167 7.97923 9.0625 7.55006 9.0625ZM5.00006 7.475C5.25423 7.475 5.50423 7.53333 5.73339 7.64583L7.08339 8.32083C7.57089 8.56667 8.01673 8.37917 8.26673 8.12083C8.51673 7.8625 8.69589 7.41667 8.44173 6.93333L5.90006 2.10417C5.72089 1.76667 5.38339 1.5625 5.00006 1.5625C4.61673 1.5625 4.27923 1.76667 4.10006 2.10833L1.55839 6.9375C1.30423 7.42083 1.47923 7.87083 1.73339 8.125C1.98756 8.37917 2.42923 8.56667 2.91673 8.325L4.26673 7.65C4.49589 7.53333 4.74589 7.475 5.00006 7.475Z" fill="#727272"/>
</svg>
