<svg width="10" height="10" viewBox="0 0 10 10" fill="none" xmlns="http://www.w3.org/2000/svg">
<g clip-path="url(#clip0_225_6716)">
<path d="M10 5C10 2.2386 7.7614 0 5 0C2.2386 0 0 2.2386 0 5C0 7.3448 1.6144 9.3124 3.7922 9.8528V6.528H2.7612V5H3.7922V4.3416C3.7922 2.6398 4.5624 1.851 6.2332 1.851C6.55 1.851 7.0966 1.9132 7.3202 1.9752V3.3602C7.2022 3.3478 6.9972 3.3416 6.7426 3.3416C5.9228 3.3416 5.606 3.6522 5.606 4.4596V5H7.2392L6.9586 6.528H5.606V9.9634C8.0818 9.6644 10.0002 7.5564 10.0002 5H10Z" fill="#0866FF"/>
<path d="M6.95839 6.52795L7.23899 4.99995H5.60579V4.45955C5.60579 3.65215 5.92259 3.34155 6.74239 3.34155C6.99699 3.34155 7.20199 3.34775 7.31999 3.36015V1.97515C7.09639 1.91295 6.54979 1.85095 6.23299 1.85095C4.56219 1.85095 3.79199 2.63975 3.79199 4.34155V4.99995H2.76099V6.52795H3.79199V9.85275C4.17879 9.94875 4.58339 9.99995 4.99979 9.99995C5.20479 9.99995 5.40699 9.98735 5.60559 9.96335V6.52795H6.95819H6.95839Z" fill="white"/>
</g>
<defs>
<clipPath id="clip0_225_6716">
<rect width="10" height="10" fill="white"/>
</clipPath>
</defs>
</svg>
