<svg width="14" height="15" viewBox="0 0 14 15" fill="none" xmlns="http://www.w3.org/2000/svg">
<path d="M11.9359 14.7918C11.6783 14.7918 11.4647 14.5782 11.4647 14.3206V7.41036C11.4647 7.1528 11.6783 6.93921 11.9359 6.93921C12.1934 6.93921 12.407 7.1528 12.407 7.41036V14.3206C12.407 14.5782 12.1934 14.7918 11.9359 14.7918Z" fill="black"/>
<path d="M11.9359 5.36861C11.6783 5.36861 11.4647 5.15502 11.4647 4.89746V1.75643C11.4647 1.49887 11.6783 1.28528 11.9359 1.28528C12.1934 1.28528 12.407 1.49887 12.407 1.75643V4.89746C12.407 5.15502 12.1934 5.36861 11.9359 5.36861Z" fill="black"/>
<path d="M7.53848 14.7917C7.28091 14.7917 7.06732 14.5781 7.06732 14.3206V11.1795C7.06732 10.922 7.28091 10.7084 7.53848 10.7084C7.79604 10.7084 8.00963 10.922 8.00963 11.1795V14.3206C8.00963 14.5781 7.79604 14.7917 7.53848 14.7917Z" fill="black"/>
<path d="M7.53848 9.13784C7.28091 9.13784 7.06732 8.92425 7.06732 8.66669V1.75643C7.06732 1.49887 7.28091 1.28528 7.53848 1.28528C7.79604 1.28528 8.00963 1.49887 8.00963 1.75643V8.66669C8.00963 8.92425 7.79604 9.13784 7.53848 9.13784Z" fill="black"/>
<path d="M3.14101 14.7918C2.88345 14.7918 2.66986 14.5782 2.66986 14.3206V7.41036C2.66986 7.1528 2.88345 6.93921 3.14101 6.93921C3.39858 6.93921 3.61217 7.1528 3.61217 7.41036V14.3206C3.61217 14.5782 3.39858 14.7918 3.14101 14.7918Z" fill="black"/>
<path d="M3.14101 5.36861C2.88345 5.36861 2.66986 5.15502 2.66986 4.89746V1.75643C2.66986 1.49887 2.88345 1.28528 3.14101 1.28528C3.39858 1.28528 3.61217 1.49887 3.61217 1.75643V4.89746C3.61217 5.15502 3.39858 5.36861 3.14101 5.36861Z" fill="black"/>
<path d="M4.39743 7.88152H1.88461C1.62704 7.88152 1.41345 7.66793 1.41345 7.41036C1.41345 7.1528 1.62704 6.93921 1.88461 6.93921H4.39743C4.65499 6.93921 4.86858 7.1528 4.86858 7.41036C4.86858 7.66793 4.65499 7.88152 4.39743 7.88152Z" fill="black"/>
<path d="M13.1923 7.88152H10.6795C10.4219 7.88152 10.2083 7.66793 10.2083 7.41036C10.2083 7.1528 10.4219 6.93921 10.6795 6.93921H13.1923C13.4499 6.93921 13.6634 7.1528 13.6634 7.41036C13.6634 7.66793 13.4499 7.88152 13.1923 7.88152Z" fill="black"/>
<path d="M8.79489 9.13774H6.28207C6.0245 9.13774 5.81091 8.92415 5.81091 8.66659C5.81091 8.40902 6.0245 8.19543 6.28207 8.19543H8.79489C9.05245 8.19543 9.26604 8.40902 9.26604 8.66659C9.26604 8.92415 9.05245 9.13774 8.79489 9.13774Z" fill="black"/>
</svg>
