<svg width="18" height="18" viewBox="0 0 18 18" fill="none" xmlns="http://www.w3.org/2000/svg">
<path d="M13.08 11.5275C12.9375 11.5275 12.795 11.475 12.6825 11.3625C12.465 11.145 12.465 10.785 12.6825 10.5675L14.205 9.04502L12.6825 7.52252C12.465 7.30502 12.465 6.94502 12.6825 6.72752C12.9 6.51002 13.26 6.51002 13.4775 6.72752L15.3975 8.64752C15.615 8.86502 15.615 9.22502 15.3975 9.44252L13.4775 11.3625C13.365 11.475 13.2225 11.5275 13.08 11.5275Z" fill="black"/>
<path d="M14.9475 9.6075H7.32001C7.01251 9.6075 6.75751 9.3525 6.75751 9.045C6.75751 8.7375 7.01251 8.4825 7.32001 8.4825H14.9475C15.255 8.4825 15.51 8.7375 15.51 9.045C15.51 9.3525 15.255 9.6075 14.9475 9.6075Z" fill="black"/>
<path d="M8.82001 15.5625C4.95751 15.5625 2.25751 12.8625 2.25751 9C2.25751 5.1375 4.95751 2.4375 8.82001 2.4375C9.12751 2.4375 9.38251 2.6925 9.38251 3C9.38251 3.3075 9.12751 3.5625 8.82001 3.5625C5.61751 3.5625 3.38251 5.7975 3.38251 9C3.38251 12.2025 5.61751 14.4375 8.82001 14.4375C9.12751 14.4375 9.38251 14.6925 9.38251 15C9.38251 15.3075 9.12751 15.5625 8.82001 15.5625Z" fill="black"/>
</svg>
