<svg width="10" height="10" viewBox="0 0 10 10" fill="none" xmlns="http://www.w3.org/2000/svg">
<path d="M7.49985 3.29598C7.48735 3.29598 7.47901 3.29598 7.46651 3.29598H7.44568C6.65818 3.27098 6.07068 2.66265 6.07068 1.91265C6.07068 1.14598 6.69568 0.525146 7.45818 0.525146C8.22068 0.525146 8.84568 1.15015 8.84568 1.91265C8.84151 2.66681 8.25401 3.27515 7.50401 3.30015C7.50401 3.29598 7.50401 3.29598 7.49985 3.29598ZM7.45818 1.14598C7.03735 1.14598 6.69568 1.48765 6.69568 1.90848C6.69568 2.32098 7.01651 2.65432 7.42901 2.67098C7.43318 2.66682 7.46651 2.66682 7.50401 2.67098C7.90818 2.65015 8.22068 2.31682 8.22485 1.90848C8.22485 1.48765 7.88318 1.14598 7.45818 1.14598Z" fill="#727272"/>
<path d="M7.50388 6.36669C7.34138 6.36669 7.17888 6.35419 7.01638 6.32502C6.84555 6.29585 6.73305 6.13335 6.76222 5.96252C6.79138 5.79169 6.95388 5.67919 7.12472 5.70835C7.63722 5.79585 8.17888 5.70002 8.54138 5.45836C8.73722 5.32919 8.84138 5.16669 8.84138 5.00419C8.84138 4.84169 8.73305 4.68335 8.54138 4.55419C8.17888 4.31252 7.62888 4.21669 7.11222 4.30835C6.94138 4.34169 6.77888 4.22502 6.74972 4.05419C6.72055 3.88335 6.83305 3.72086 7.00388 3.69169C7.68305 3.57086 8.38722 3.70002 8.88722 4.03335C9.25388 4.27919 9.46638 4.62919 9.46638 5.00419C9.46638 5.37502 9.25805 5.72919 8.88722 5.97919C8.50805 6.22919 8.01638 6.36669 7.50388 6.36669Z" fill="#727272"/>
<path d="M2.4877 3.296C2.48353 3.296 2.47936 3.296 2.47936 3.296C1.72936 3.271 1.14186 2.66266 1.1377 1.91266C1.1377 1.14599 1.7627 0.520996 2.5252 0.520996C3.2877 0.520996 3.9127 1.146 3.9127 1.9085C3.9127 2.66266 3.3252 3.271 2.5752 3.296L2.4877 2.9835L2.51686 3.296C2.50853 3.296 2.49603 3.296 2.4877 3.296ZM2.52936 2.671C2.55436 2.671 2.5752 2.671 2.6002 2.67516C2.97103 2.6585 3.29603 2.32516 3.29603 1.91266C3.29603 1.49183 2.95436 1.15016 2.53353 1.15016C2.1127 1.15016 1.77103 1.49183 1.77103 1.91266C1.77103 2.32099 2.0877 2.65016 2.49186 2.67516C2.49603 2.671 2.5127 2.671 2.52936 2.671Z" fill="#727272"/>
<path d="M2.4835 6.36669C1.971 6.36669 1.47933 6.22919 1.10016 5.97919C0.733496 5.73336 0.520996 5.37919 0.520996 5.00419C0.520996 4.63335 0.733496 4.27919 1.10016 4.03335C1.60016 3.70002 2.30433 3.57086 2.9835 3.69169C3.15433 3.72086 3.26683 3.88335 3.23766 4.05419C3.2085 4.22502 3.046 4.34169 2.87516 4.30835C2.3585 4.21669 1.81266 4.31252 1.446 4.55419C1.25016 4.68335 1.146 4.84169 1.146 5.00419C1.146 5.16669 1.25433 5.32919 1.446 5.45836C1.8085 5.70002 2.35016 5.79585 2.86266 5.70835C3.0335 5.67919 3.196 5.79585 3.22516 5.96252C3.25433 6.13335 3.14183 6.29585 2.971 6.32502C2.8085 6.35419 2.646 6.36669 2.4835 6.36669Z" fill="#727272"/>
<path d="M5.00021 6.40841C4.98771 6.40841 4.97938 6.40841 4.96688 6.40841H4.94604C4.15854 6.38341 3.57104 5.77507 3.57104 5.02507C3.57104 4.25841 4.19605 3.63757 4.95855 3.63757C5.72105 3.63757 6.34604 4.26257 6.34604 5.02507C6.34188 5.77924 5.75438 6.38757 5.00438 6.41257C5.00438 6.40841 5.00438 6.40841 5.00021 6.40841ZM4.95855 4.25841C4.53771 4.25841 4.19604 4.60008 4.19604 5.02091C4.19604 5.43341 4.51688 5.76674 4.92938 5.78341C4.93355 5.77924 4.96688 5.77924 5.00438 5.78341C5.40854 5.76258 5.72105 5.42924 5.72521 5.02091C5.72521 4.60424 5.38355 4.25841 4.95855 4.25841Z" fill="#727272"/>
<path d="M4.99987 9.48342C4.49987 9.48342 3.99987 9.35426 3.61237 9.09176C3.2457 8.84593 3.0332 8.49593 3.0332 8.12093C3.0332 7.75009 3.24154 7.39176 3.61237 7.14592C4.39154 6.62926 5.61237 6.62926 6.38737 7.14592C6.75404 7.39176 6.96654 7.74176 6.96654 8.11676C6.96654 8.48759 6.7582 8.84593 6.38737 9.09176C5.99987 9.3501 5.49987 9.48342 4.99987 9.48342ZM3.9582 7.67093C3.76237 7.80009 3.6582 7.96259 3.6582 8.12509C3.6582 8.28759 3.76654 8.44593 3.9582 8.57509C4.5207 8.95426 5.47487 8.95426 6.03737 8.57509C6.2332 8.44593 6.33737 8.28343 6.33737 8.12093C6.33737 7.95843 6.22904 7.80009 6.03737 7.67093C5.47904 7.29176 4.52487 7.29593 3.9582 7.67093Z" fill="#727272"/>
</svg>
