<svg width="14" height="15" viewBox="0 0 14 15" fill="none" xmlns="http://www.w3.org/2000/svg">
<path d="M9.33325 13.7708H4.66659C2.90492 13.7708 1.89575 12.7617 1.89575 11V5.31249C1.89575 3.47499 2.82909 2.54166 4.66659 2.54166C4.90575 2.54166 5.10409 2.73999 5.10409 2.97916C5.10409 3.21249 5.19742 3.43416 5.36075 3.59749C5.52409 3.76082 5.74575 3.85416 5.97908 3.85416H8.02075C8.50492 3.85416 8.89575 3.46332 8.89575 2.97916C8.89575 2.73999 9.09409 2.54166 9.33325 2.54166C11.1708 2.54166 12.1041 3.47499 12.1041 5.31249V11C12.1041 12.7617 11.0949 13.7708 9.33325 13.7708ZM4.2874 3.42833C3.36574 3.50416 2.77075 3.91832 2.77075 5.31249V11C2.77075 12.295 3.37159 12.8958 4.66659 12.8958H9.33325C10.6283 12.8958 11.2291 12.295 11.2291 11V5.31249C11.2291 3.91832 10.6341 3.50999 9.71243 3.42833C9.5141 4.17499 8.83158 4.72916 8.02075 4.72916H5.97908C5.51242 4.72916 5.07492 4.54832 4.74242 4.21582C4.52075 3.99415 4.36907 3.72583 4.2874 3.42833Z" fill="white"/>
<path d="M8.02091 4.72916H5.97925C5.51258 4.72916 5.07508 4.54832 4.74258 4.21582C4.41008 3.88332 4.22925 3.44582 4.22925 2.97916C4.22925 2.01666 5.01675 1.22916 5.97925 1.22916H8.02091C8.48758 1.22916 8.92508 1.40999 9.25758 1.74249C9.59008 2.07499 9.77091 2.51249 9.77091 2.97916C9.77091 3.94166 8.98341 4.72916 8.02091 4.72916ZM5.97925 2.10416C5.49508 2.10416 5.10425 2.49499 5.10425 2.97916C5.10425 3.21249 5.19758 3.43415 5.36092 3.59749C5.52425 3.76082 5.74591 3.85416 5.97925 3.85416H8.02091C8.50508 3.85416 8.89591 3.46332 8.89591 2.97916C8.89591 2.74582 8.80258 2.52416 8.63925 2.36082C8.47591 2.19749 8.25425 2.10416 8.02091 2.10416H5.97925Z" fill="white"/>
<path d="M7.00008 8.52084H4.66675C4.42758 8.52084 4.22925 8.32251 4.22925 8.08334C4.22925 7.84418 4.42758 7.64584 4.66675 7.64584H7.00008C7.23925 7.64584 7.43758 7.84418 7.43758 8.08334C7.43758 8.32251 7.23925 8.52084 7.00008 8.52084Z" fill="white"/>
<path d="M9.33341 10.8542H4.66675C4.42758 10.8542 4.22925 10.6558 4.22925 10.4167C4.22925 10.1775 4.42758 9.97916 4.66675 9.97916H9.33341C9.57258 9.97916 9.77091 10.1775 9.77091 10.4167C9.77091 10.6558 9.57258 10.8542 9.33341 10.8542Z" fill="white"/>
</svg>
