<svg width="24" height="24" viewBox="0 0 24 24" fill="none" xmlns="http://www.w3.org/2000/svg">
<path d="M20.9999 20.25H10.9999C10.5899 20.25 10.2499 19.91 10.2499 19.5C10.2499 19.09 10.5899 18.75 10.9999 18.75H20.9999C21.4099 18.75 21.7499 19.09 21.7499 19.5C21.7499 19.91 21.4099 20.25 20.9999 20.25Z" fill="black"/>
<path d="M20.9999 13.2501H10.9999C10.5899 13.2501 10.2499 12.9101 10.2499 12.5001C10.2499 12.0901 10.5899 11.7501 10.9999 11.7501H20.9999C21.4099 11.7501 21.7499 12.0901 21.7499 12.5001C21.7499 12.9101 21.4099 13.2501 20.9999 13.2501Z" fill="black"/>
<path d="M20.9999 6.24994H10.9999C10.5899 6.24994 10.2499 5.90994 10.2499 5.49994C10.2499 5.08994 10.5899 4.74994 10.9999 4.74994H20.9999C21.4099 4.74994 21.7499 5.08994 21.7499 5.49994C21.7499 5.90994 21.4099 6.24994 20.9999 6.24994Z" fill="black"/>
<path d="M4.00006 7.25006C3.81006 7.25006 3.62006 7.18006 3.47006 7.03006L2.47006 6.03006C2.18006 5.74006 2.18006 5.26006 2.47006 4.97006C2.76006 4.68006 3.24006 4.68006 3.53006 4.97006L4.00006 5.44006L6.47006 2.97006C6.76006 2.68006 7.24006 2.68006 7.53006 2.97006C7.82006 3.26006 7.82006 3.74006 7.53006 4.03006L4.53006 7.03006C4.38006 7.18006 4.19006 7.25006 4.00006 7.25006Z" fill="black"/>
<path d="M4.00006 14.25C3.81006 14.25 3.62006 14.18 3.47006 14.03L2.47006 13.03C2.18006 12.74 2.18006 12.26 2.47006 11.97C2.76006 11.68 3.24006 11.68 3.53006 11.97L4.00006 12.44L6.47006 9.97C6.76006 9.68 7.24006 9.68 7.53006 9.97C7.82006 10.26 7.82006 10.74 7.53006 11.03L4.53006 14.03C4.38006 14.18 4.19006 14.25 4.00006 14.25Z" fill="black"/>
<path d="M4.00006 21.25C3.81006 21.25 3.62006 21.18 3.47006 21.03L2.47006 20.03C2.18006 19.74 2.18006 19.26 2.47006 18.97C2.76006 18.68 3.24006 18.68 3.53006 18.97L4.00006 19.44L6.47006 16.97C6.76006 16.68 7.24006 16.68 7.53006 16.97C7.82006 17.26 7.82006 17.74 7.53006 18.03L4.53006 21.03C4.38006 21.18 4.19006 21.25 4.00006 21.25Z" fill="black"/>
</svg>
