<svg width="10" height="10" viewBox="0 0 10 10" fill="none" xmlns="http://www.w3.org/2000/svg">
<g clip-path="url(#clip0_225_6724)">
<path d="M5 10C7.76142 10 10 7.76142 10 5C10 2.23858 7.76142 0 5 0C2.23858 0 0 2.23858 0 5C0 7.76142 2.23858 10 5 10Z" fill="url(#paint0_linear_225_6724)"/>
<path fill-rule="evenodd" clip-rule="evenodd" d="M2.2633 4.94723C3.7209 4.31217 4.69286 3.89351 5.17919 3.69123C6.56774 3.11368 6.85627 3.01336 7.04433 3.01005C7.08569 3.00932 7.17817 3.01957 7.23808 3.06818C7.28866 3.10922 7.30258 3.16467 7.30924 3.20358C7.3159 3.2425 7.32419 3.33115 7.3176 3.40042C7.24236 4.19103 6.91677 6.10965 6.75112 6.99516C6.68104 7.36985 6.54303 7.49548 6.40942 7.50777C6.11906 7.53449 5.89858 7.31588 5.61735 7.13154C5.17728 6.84307 4.92868 6.6635 4.50152 6.38201C4.00786 6.05669 4.32788 5.8779 4.60921 5.58569C4.68284 5.50922 5.96217 4.34557 5.98693 4.24001C5.99002 4.22681 5.9929 4.1776 5.96366 4.15161C5.93443 4.12563 5.89128 4.13451 5.86014 4.14158C5.816 4.1516 5.11299 4.61626 3.75111 5.53557C3.55156 5.67259 3.37082 5.73935 3.20888 5.73586C3.03035 5.732 2.68694 5.63491 2.43165 5.55193C2.11853 5.45015 1.86966 5.39633 1.89133 5.22347C1.90262 5.13343 2.02661 5.04135 2.2633 4.94723Z" fill="white"/>
</g>
<defs>
<linearGradient id="paint0_linear_225_6724" x1="5" y1="0" x2="5" y2="9.92583" gradientUnits="userSpaceOnUse">
<stop stop-color="#2AABEE"/>
<stop offset="1" stop-color="#229ED9"/>
</linearGradient>
<clipPath id="clip0_225_6724">
<rect width="10" height="10" fill="white"/>
</clipPath>
</defs>
</svg>
