<svg width="10" height="10" viewBox="0 0 10 10" fill="none" xmlns="http://www.w3.org/2000/svg">
<path d="M0 9.99998L0.702915 7.43207C0.269166 6.6804 0.0412499 5.82832 0.0416666 4.95457C0.0429166 2.22291 2.26583 0 4.99707 0C6.32249 0.000416666 7.56665 0.516666 8.50248 1.45333C9.4379 2.38999 9.9529 3.63499 9.95248 4.95916C9.95123 7.69123 7.72832 9.91415 4.99707 9.91415C4.16791 9.91373 3.35083 9.70581 2.62708 9.31081L0 9.99998ZM2.74874 8.41373C3.44708 8.82831 4.11374 9.07665 4.99541 9.07706C7.2654 9.07706 9.11456 7.22957 9.11581 4.95832C9.11665 2.68249 7.27623 0.837498 4.99874 0.836665C2.72708 0.836665 0.879165 2.68416 0.878331 4.95499C0.877915 5.88207 1.14958 6.57624 1.60583 7.30248L1.18958 8.82248L2.74874 8.41373ZM7.49332 6.13707C7.46248 6.0854 7.37998 6.05457 7.25582 5.99249C7.13207 5.9304 6.52332 5.63082 6.40957 5.58957C6.29624 5.54832 6.21374 5.52749 6.13082 5.65165C6.04832 5.7754 5.81082 6.05457 5.73874 6.13707C5.66665 6.21957 5.59415 6.22999 5.4704 6.1679C5.34665 6.10582 4.94749 5.9754 4.47457 5.55332C4.10666 5.22499 3.85791 4.81957 3.78582 4.69541C3.71374 4.57166 3.77832 4.50457 3.83999 4.44291C3.89582 4.38749 3.96374 4.29832 4.02582 4.22582C4.08874 4.15416 4.10916 4.10249 4.15082 4.01957C4.19207 3.93707 4.17166 3.86458 4.14041 3.80249C4.10916 3.74083 3.86166 3.13124 3.75874 2.88333C3.65791 2.64208 3.55583 2.67458 3.47999 2.67083L3.24249 2.66666C3.15999 2.66666 3.02583 2.69749 2.91249 2.82166C2.79916 2.94583 2.47916 3.24499 2.47916 3.85458C2.47916 4.46416 2.92291 5.05291 2.98458 5.13541C3.04666 5.21791 3.85749 6.46874 5.09957 7.00498C5.39499 7.13248 5.62582 7.20873 5.8054 7.26582C6.10207 7.35998 6.37207 7.34665 6.5854 7.31498C6.82332 7.27957 7.3179 7.0154 7.42123 6.72624C7.52457 6.43665 7.52457 6.18874 7.49332 6.13707Z" fill="#25D366"/>
</svg>
