<svg width="10" height="10" viewBox="0 0 10 10" fill="none" xmlns="http://www.w3.org/2000/svg">
<path d="M5.00004 6.97921C3.22087 6.97921 1.77087 5.52921 1.77087 3.75004C1.77087 1.97087 3.22087 0.520874 5.00004 0.520874C6.77921 0.520874 8.22921 1.97087 8.22921 3.75004C8.22921 5.52921 6.77921 6.97921 5.00004 6.97921ZM5.00004 1.14587C3.56254 1.14587 2.39587 2.31254 2.39587 3.75004C2.39587 5.18754 3.56254 6.35421 5.00004 6.35421C6.43754 6.35421 7.60421 5.18754 7.60421 3.75004C7.60421 2.31254 6.43754 1.14587 5.00004 1.14587Z" fill="#727272"/>
<path d="M5 9.47913C4.82917 9.47913 4.6875 9.33746 4.6875 9.16663V6.66663C4.6875 6.49579 4.82917 6.35413 5 6.35413C5.17083 6.35413 5.3125 6.49579 5.3125 6.66663V9.16663C5.3125 9.33746 5.17083 9.47913 5 9.47913Z" fill="#727272"/>
<path d="M6.25 8.22913H3.75C3.57917 8.22913 3.4375 8.08746 3.4375 7.91663C3.4375 7.74579 3.57917 7.60413 3.75 7.60413H6.25C6.42083 7.60413 6.5625 7.74579 6.5625 7.91663C6.5625 8.08746 6.42083 8.22913 6.25 8.22913Z" fill="#727272"/>
</svg>
